# xmcd CD database file
#
# Track frame offsets:
#	150
#	11773
#	23720
#	34408
#	44948
#	55198
#	64990
#	76335
#	90853
#	102613
#	112895
#	122998
#	133220
#	141355
#
# Disc length: 2016 seconds
#
# Revision: 2
# Processed by: cddbd v1.4PL0 Copyright (c) Steve Scherf et al.
# Submitted via: CDex 1.40Beta9
#
DISCID=cb07de0e
DTITLE=Little Richard - Little Richard
DYEAR=1900
DGENRE=Blues
TTITLE0=Whole, Lot a Shakin' Goin' on
TTITLE1=Goodnight Irene
TTITLE2=Hound Dog
TTITLE3=Only You
TTITLE4=Money Honey
TTITLE5=Good Golly Miss Molly
TTITLE6=Lucille
TTITLE7=Going Home Tomorow
TTITLE8=Cherry Red
TTITLE9=Groovy Little Suzy
TTITLE10=Short Fat Fanny
TTITLE11=Memories Are Made Of This
TTITLE12=Blueberry Hill
TTITLE13=Lawdy Miss Claudie
EXTD=0\n\n18\n ID3G: 0
EXTT0=
EXTT1=
EXTT2=
EXTT3=
EXTT4=
EXTT5=
EXTT6=
EXTT7=
EXTT8=
EXTT9=
EXTT10=
EXTT11=
EXTT12=
EXTT13=
PLAYORDER=
